<?xml version="1.0" standalone="no"?><!DOCTYPE svg PUBLIC "-//W3C//DTD SVG 1.1//EN" "http://www.w3.org/Graphics/SVG/1.1/DTD/svg11.dtd"><svg t="1539773763437" class="icon" style="" viewBox="0 0 1024 1024" version="1.1" xmlns="http://www.w3.org/2000/svg" p-id="2498" xmlns:xlink="http://www.w3.org/1999/xlink" width="200" height="200"><defs><style type="text/css"></style></defs><path d="M390.144 733.184c0-44.544-36.352-80.896-80.896-80.896-44.544 0-80.896 36.352-80.896 80.896 0 44.544 36.352 80.896 80.896 80.896 44.544 0 80.896-36.352 80.896-80.896z m404.48 0c0-44.544-36.352-80.896-80.896-80.896-44.544 0-80.896 36.352-80.896 80.896 0 44.544 36.352 80.896 80.896 80.896 44.544 0 80.896-36.352 80.896-80.896z m0-404.992c9.728-71.168-53.76-80.896-53.76-80.896-14.848-8.704-108.032 0-108.032 0-61.952-83.968-108.032 0-108.032 0H443.904c-51.2-24.576-27.136 53.76-27.136 53.76H363.008c-39.936-26.624-80.896 27.136-80.896 27.136-10.24-44.544-27.136 0-27.136 0-74.752-10.24-108.032 53.76-108.032 53.76H875.52c14.336-87.04-80.896-53.76-80.896-53.76z" fill="" p-id="2499"></path><path d="M215.04 681.472c18.432-33.28 53.248-56.32 94.208-56.32 59.392 0 108.032 48.128 108.032 108.032h188.928c0-59.392 48.128-108.032 108.032-108.032 38.4 0 71.68 19.968 90.624 49.664l44.544-265.728H146.944L215.04 681.472z m219.136-22.528l-23.04-23.04 114.688-114.688 60.928 60.928 117.76-98.304-26.624-26.624 76.288 4.096V537.6l-26.624-26.624-140.8 117.76-60.928-60.928c-0.512 0-91.648 91.136-91.648 91.136z" fill="" p-id="2500"></path><path d="M512 51.2c253.952 0 460.8 206.848 460.8 460.8s-206.848 460.8-460.8 460.8-460.8-206.848-460.8-460.8 206.848-460.8 460.8-460.8m0-51.2C229.376 0 0 229.376 0 512s229.376 512 512 512 512-229.376 512-512S794.624 0 512 0z" fill="" p-id="2501"></path></svg>