<?xml version="1.0" standalone="no"?><!DOCTYPE svg PUBLIC "-//W3C//DTD SVG 1.1//EN" "http://www.w3.org/Graphics/SVG/1.1/DTD/svg11.dtd"><svg t="1539745593040" class="icon" style="" viewBox="0 0 1024 1024" version="1.1" xmlns="http://www.w3.org/2000/svg" p-id="9085" xmlns:xlink="http://www.w3.org/1999/xlink" width="200" height="200"><defs><style type="text/css"></style></defs><path d="M524.645566 162.868374c190.509464 0 345.513622 134.250074 345.536888 299.212469 0 107.190657-48.604576 170.941992-84.063347 217.49908-22.173366 29.083638-34.597896 46.301152-34.597896 63.588467 0 38.809207-23.266911 75.38479-64.519143 102.816477-1.047011 23.034241-4.81625 79.130763-4.816251 79.130763-0.511872 15.495762-9.539433 48.581309-71.452682 67.055236-7.189475 9.516166-16.705642 17.962055-28.222763 24.872328-7.236009 4.420713-15.728432 6.70087-24.430256 6.70087h-66.892367c-8.701825 0-17.217514-2.349958-24.40699-6.70087a99.000704 99.000704 0 0 1-28.222762-24.895595c-61.37811-18.264525-70.754675-50.954534-71.429416-66.915634v-0.069801s-3.792506-56.189589-4.839517-79.200563c-41.275499-27.431688-64.495876-64.007271-64.495876-102.839745 0-17.264048-12.447797-34.458295-34.435028-63.332531C227.689987 632.859967 179.155211 569.178433 179.155211 462.080843c0-164.962396 154.980891-299.21247 345.490355-299.235736z m174.664697 474.691509C731.511668 593.818091 767.808048 544.631842 767.808048 459.381882 767.808048 334.368771 653.009111 232.669105 511.872032 232.669105c-141.113812 0.046534-255.936016 101.769467-255.936016 226.759311 0 85.063825 36.22658 134.296608 68.172048 177.735929 25.593602 34.784031 49.465452 67.241371 49.465452 110.63416 0 19.078867 18.613528 34.435028 32.45734 43.276454h211.682352c13.843812-8.841426 32.434073-24.197587 32.434073-43.276454 0-43.369521 23.87185-75.850128 49.162982-110.238622zM511.872032 93.067642c-14.146282 0-25.616869-8.306287-25.616869-18.613528V18.613528c0-10.283974 11.470587-18.613528 25.593602-18.613528 14.146282 0 25.593602 8.329554 25.593602 18.613528v55.840586c0 10.307241-11.44732 18.613528-25.593602 18.613528z m-220.104974 59.679626l-32.922678-52.583218c-6.049397-9.679035-2.443026-22.033764 8.027084-27.64109 10.516644-5.584059 23.918384-2.280157 29.967781 7.398878l32.899411 52.583218c6.049397 9.702302 2.489559 22.057031-8.027084 27.664356-3.443503 1.814819-7.212742 2.698962-10.935448 2.698962a22.336234 22.336234 0 0 1-19.032333-10.121106zM167.987094 265.24278c10.656245 5.514258 14.30915 17.729386 8.166686 27.245552a22.871373 22.871373 0 0 1-19.311536 9.981505c-3.76924 0-7.60828-0.860876-11.121583-2.675695L87.902388 269.896162c-10.632978-5.514258-14.285883-17.706119-8.143419-27.245552 6.165731-9.539433 19.753607-12.820068 30.409852-7.30581L168.033628 265.24278zM102.374406 465.338211c0 12.843335-9.167163 23.266911-20.474881 23.26691H20.474881C9.167163 488.605121 0 478.181546 0 465.338211s9.167163-23.266911 20.474881-23.266911h61.424644c11.307719 0 20.474881 10.423576 20.474881 23.266911z m43.416055 165.567335c10.656245-5.537525 24.244121-2.280157 30.386586 7.30581 6.142464 9.516166 2.489559 21.708028-8.166686 27.222286l-57.84154 29.89798a24.197587 24.197587 0 0 1-11.098316 2.675694c-7.67808 0-15.193293-3.559837-19.311536-9.981504-6.142464-9.516166-2.466293-21.708028 8.166686-27.222286l57.864806-29.89798z m815.668083 29.921247c10.632978 5.467724 14.239349 17.706119 8.143419 27.222286a22.89464 22.89464 0 0 1-19.311536 9.958237c-3.792506 0-7.585013-0.837609-11.121583-2.675694L881.304038 665.433642c-10.656245-5.514258-14.285883-17.682852-8.120152-27.26882 6.165731-9.539433 19.73034-12.796801 30.433119-7.259276l57.841539 29.921247zM1003.269183 442.0713c11.330985 0 20.474881 10.423576 20.474881 23.266911 0 12.820068-9.19043 23.243644-20.474881 23.243644l-61.447911-0.023267c-11.284452 0-20.451614-10.400309-20.451614-23.266911 0-12.820068 9.167163-23.243644 20.474881-23.243644l61.424644 0.023267zM892.448888 302.469837a22.89464 22.89464 0 0 1-19.288269-9.981505c-6.119197-9.516166-2.512826-21.731294 8.166686-27.222285l57.841539-29.921247c10.609711-5.514258 24.244121-2.233623 30.409852 7.30581 6.142464 9.539433 2.489559 21.754561-8.166685 27.245552l-57.864807 29.89798c-3.46677 1.814819-7.30581 2.675695-11.098316 2.675695z m-190.46293-142.323692c-10.47011-5.584059-14.076481-17.962055-8.027084-27.617823l32.876145-52.583217c6.072664-9.725569 19.474404-13.02947 30.014314-7.398878 10.493377 5.584059 14.076481 17.962055 8.003817 27.64109L731.977006 152.747268a22.359501 22.359501 0 0 1-19.032333 10.121106 23.010975 23.010975 0 0 1-10.935448-2.722229z m-218.592625 422.852833l-20.125877-138.484652c-1.27968-9.446366-2.582627-18.939265-2.582627-27.803958v-68.637386c0-30.246984 18.799664-45.603145 51.187203-45.603145 32.387539 0 51.187203 15.402695 51.187203 45.603145v68.637386c0 8.864693-1.27968 18.357592-2.55936 27.803958l-20.056077 138.484652c-2.582627 17.194247-11.726523 21.940697-28.548499 21.940696-16.821976 0-25.919338-4.74645-28.501966-21.940696zM511.872032 651.473495c28.106428 0 51.187203 21.01002 51.187203 46.533821 0 25.547068-23.080775 46.533821-51.187203 46.533821-28.083161 0-51.187203-20.986753-51.187203-46.533821 0-25.523801 23.080775-46.533821 51.187203-46.533821z" p-id="9086"></path></svg>