<?xml version="1.0" standalone="no"?><!DOCTYPE svg PUBLIC "-//W3C//DTD SVG 1.1//EN" "http://www.w3.org/Graphics/SVG/1.1/DTD/svg11.dtd"><svg t="1539773974699" class="icon" style="" viewBox="0 0 1024 1024" version="1.1" xmlns="http://www.w3.org/2000/svg" p-id="4722" xmlns:xlink="http://www.w3.org/1999/xlink" width="200" height="200"><defs><style type="text/css"></style></defs><path d="M514.976 963.264c-247.04 0-448-201.024-448-448s200.96-448 448-448c87.872 0 172.928 25.408 246.016 73.472 14.72 9.728 18.816 29.632 9.152 44.352a32.192 32.192 0 0 1-44.352 9.152 381.12 381.12 0 0 0-210.752-62.976c-211.776 0-384 172.224-384 384s172.224 384 384 384 384-172.224 384-384c0-60.736-13.824-118.976-41.152-173.056a32 32 0 1 1 57.152-28.864c31.872 63.104 48 131.072 48 201.92-0.064 246.976-201.024 448-448.064 448z" p-id="4723"></path><path d="M513.504 729.664a32.256 32.256 0 0 1-22.656-9.344L308.96 538.304l-27.264 27.264a32 32 0 0 1-45.312-45.248l49.92-49.856a32 32 0 0 1 45.248 0l181.888 182.016 348.48-348.48a32 32 0 0 1 45.248 45.248l-371.136 371.136a31.68 31.68 0 0 1-22.528 9.28z" p-id="4724"></path></svg>