<?xml version="1.0" standalone="no"?><!DOCTYPE svg PUBLIC "-//W3C//DTD SVG 1.1//EN" "http://www.w3.org/Graphics/SVG/1.1/DTD/svg11.dtd"><svg t="1539773932905" class="icon" style="" viewBox="0 0 1024 1024" version="1.1" xmlns="http://www.w3.org/2000/svg" p-id="3996" xmlns:xlink="http://www.w3.org/1999/xlink" width="200" height="200"><defs><style type="text/css"></style></defs><path d="M810.097778 995.555556h-625.777778a113.777778 113.777778 0 0 1-113.777778-113.777778v-739.555556a113.777778 113.777778 0 0 1 113.777778-113.777778h625.777778a113.777778 113.777778 0 0 1 113.777778 113.777778V398.222222a28.444444 28.444444 0 0 1-56.888889 0V142.791111a56.888889 56.888889 0 0 0-56.888889-56.888889h-625.777778a56.888889 56.888889 0 0 0-56.888889 56.888889v739.555556a56.888889 56.888889 0 0 0 56.888889 56.888889h625.777778a56.888889 56.888889 0 0 0 56.888889-56.888889V796.444444a28.444444 28.444444 0 0 1 56.888889 0v84.764445a113.777778 113.777778 0 0 1-113.777778 114.346667z" p-id="3997"></path><path d="M753.777778 284.444444h-512a28.444444 28.444444 0 0 1 0-56.888888h512a28.444444 28.444444 0 0 1 0 56.888888zM696.888889 512h-455.111111a28.444444 28.444444 0 0 1 0-56.888889h455.111111a28.444444 28.444444 0 0 1 0 56.888889zM469.333333 739.555556h-227.555555a28.444444 28.444444 0 0 1 0-56.888889h227.555555a28.444444 28.444444 0 0 1 0 56.888889zM998.4 545.564444a83.057778 83.057778 0 0 0-5.12-17.066666 135.395556 135.395556 0 0 0-22.755556-34.702222 113.777778 113.777778 0 0 0-29.582222-24.462223 97.28 97.28 0 0 0-16.497778-6.826666 85.902222 85.902222 0 0 0-21.048888-3.413334h-2.844445a74.524444 74.524444 0 0 0-47.217778 17.066667l-13.084444 11.946667-11.377778 10.808889-3.413333 2.844444-29.013334 26.168889-87.04 89.884444-32.995555 34.133334-29.582222 30.72-22.755556 23.893333-9.671111 10.24a104.675556 104.675556 0 0 0-13.653333 17.066667 108.657778 108.657778 0 0 0-7.964445 15.36 138.24 138.24 0 0 0-7.395555 18.773333l-6.826667 23.324444-6.826667 23.324445a183.751111 183.751111 0 0 0-5.12 22.755555 56.888889 56.888889 0 0 0 10.24 46.648889 50.631111 50.631111 0 0 0 41.528889 18.773334H625.777778l19.911111-4.551111 25.031111-7.395556 24.462222-8.533333 19.911111-8.533334a91.022222 91.022222 0 0 0 18.773334-11.377777l10.808889-9.102223 12.515555-12.515555 21.617778-22.755556 28.444444-29.582222 32.426667-33.564444 87.04-89.884445 27.875556-29.013333 7.964444-7.964445 6.257778-6.257777 9.102222-9.671112a73.955556 73.955556 0 0 0 14.222222-23.893333 72.817778 72.817778 0 0 0 4.551111-25.6 94.435556 94.435556 0 0 0 1.706667-17.066667z m-185.457778 183.182223l-32.426666 33.564444-29.013334 30.151111-21.617778 22.186667-10.24 10.24-9.102222 7.964444a51.768889 51.768889 0 0 1-10.808889 6.826667l-16.497777 6.826667-22.755556 7.964444-22.755556 6.826667-15.928888 3.982222h-4.551112a12.515556 12.515556 0 0 1-10.24-3.413333 20.48 20.48 0 0 1 0-15.36 147.342222 147.342222 0 0 1 3.982223-17.066667l6.257777-22.755556 6.826667-22.186666a93.866667 93.866667 0 0 1 5.12-13.653334 69.404444 69.404444 0 0 1 5.688889-10.808888 67.697778 67.697778 0 0 1 8.533333-10.808889l11.377778-11.946667 22.186667-23.324444 29.582222-30.72 32.995556-34.133334 87.04-89.884444 75.662222 78.506666z m145.635556-153.031111a32.995556 32.995556 0 0 1-6.257778 10.24l-8.533333 8.533333-6.826667 6.826667-6.257778 5.688888L853.333333 529.066667l11.377778-11.377778 11.377778-10.24a35.84 35.84 0 0 1 11.946667-6.257778H910.222222l9.671111 3.982222a74.524444 74.524444 0 0 1 18.773334 15.928889 93.866667 93.866667 0 0 1 15.928889 23.893334 42.666667 42.666667 0 0 1 0 8.533333 51.768889 51.768889 0 0 1 0 10.24 30.72 30.72 0 0 1 3.982222 11.946667z" p-id="3998"></path></svg>