<?xml version="1.0" standalone="no"?><!DOCTYPE svg PUBLIC "-//W3C//DTD SVG 1.1//EN" "http://www.w3.org/Graphics/SVG/1.1/DTD/svg11.dtd"><svg t="1539745452348" class="icon" style="" viewBox="0 0 1024 1024" version="1.1" xmlns="http://www.w3.org/2000/svg" p-id="8252" xmlns:xlink="http://www.w3.org/1999/xlink" width="200" height="200"><defs><style type="text/css"></style></defs><path d="M323.92192 538.86976H270.18752c-13.43488 0-26.86976 13.42976-26.86976 26.86464s13.43488 26.86976 26.86976 26.86976h53.73952c13.43488 0 26.86976-13.43488 26.86976-26.86976s-13.44-26.86464-26.87488-26.86464z m0-161.21344H270.18752c-13.43488 0-26.86976 13.43488-26.86976 26.86976s13.43488 26.86976 26.86976 26.86976h53.73952c13.43488 0 26.86976-13.43488 26.86976-26.86976-0.00512-13.43488-13.44-26.86976-26.87488-26.86976z m429.89056 161.21344H431.39584c-13.43488 0-26.86976 13.42976-26.86976 26.86464s13.43488 26.86976 26.86976 26.86976h322.42176c13.43488 0 26.86976-13.43488 26.86976-26.86976s-13.43488-26.86464-26.87488-26.86464z m-429.89056 161.20832H270.18752c-13.43488 0-26.86976 13.42976-26.86976 26.86464s13.43488 26.86976 26.86976 26.86976h53.73952c13.43488 0 26.86976-13.43488 26.86976-26.86976s-13.44-26.86464-26.87488-26.86464z m429.89056 0H431.39584c-13.43488 0-26.86976 13.42976-26.86976 26.86464s13.43488 26.86976 26.86976 26.86976h322.42176c13.43488 0 26.86976-13.43488 26.86976-26.86976s-13.43488-26.86464-26.87488-26.86464z m0-322.42176H431.39584c-13.43488 0-26.86976 13.43488-26.86976 26.86976s13.43488 26.86976 26.86976 26.86976h322.42176c13.43488 0 26.86976-13.43488 26.86976-26.86976s-13.43488-26.86976-26.87488-26.86976z" p-id="8253"></path><path d="M915.02592 135.84384h-134.33856V55.23968c0-13.43488-13.43488-26.86976-26.86976-26.86976s-26.86976 13.43488-26.86976 26.86976v80.60416H297.05216V55.23968c0-13.43488-13.43488-26.86976-26.86976-26.86976s-26.86976 13.43488-26.86976 26.86976v80.60416H108.97408c-16.11776 0-26.86976 10.74688-26.86976 26.86976v806.04672c0 16.12288 10.74688 26.86976 26.86976 26.86976h806.05184c16.11776 0 26.86976-10.74688 26.86976-26.86976V162.7136c0-16.12288-10.752-26.86976-26.86976-26.86976z m-26.86976 806.05184H135.84384V189.57824h107.47392v26.86976c0 13.43488 13.43488 26.86976 26.86976 26.86976s26.86976-13.43488 26.86976-26.86976v-26.86976h429.89056v26.86976c0 13.43488 13.43488 26.86976 26.86976 26.86976s26.86976-13.43488 26.86976-26.86976v-26.86976h107.4688v752.31744z" p-id="8254"></path></svg>