<?xml version="1.0" standalone="no"?><!DOCTYPE svg PUBLIC "-//W3C//DTD SVG 1.1//EN" "http://www.w3.org/Graphics/SVG/1.1/DTD/svg11.dtd"><svg t="1539745538769" class="icon" style="" viewBox="0 0 1024 1024" version="1.1" xmlns="http://www.w3.org/2000/svg" p-id="8953" xmlns:xlink="http://www.w3.org/1999/xlink" width="200" height="200"><defs><style type="text/css"></style></defs><path d="M518.6 925.9c-37.9 0-76.7-11.5-122.3-36.1-40-21.6-80.4-50.8-123.2-81.6-3.9-2.8-7.7-5.6-11.6-8.4-66.1-47.6-113.7-91.5-141.4-130.6l-0.6-0.9c-9-12.7-6.6-35.4-5.7-41.6l0.3-344.4c-0.4-4.1-1.5-20.1 7-34.2 14.2-23.2 60-60.6 112.1-83.2 51.2-22.2 128.6-55.8 274.3-55.8 77.8 0 149.2 14.7 195.4 26.9 57.6 15.3 98 32.5 112.8 40.3 4.6 2.4 9.4 4.9 14.1 7.3 31 15.9 60.4 31 73.4 47.9 14.8 19.3 12.7 47.2 12.2 52.2v321.9c0.1 34 0.1 44.3-4.1 52.6-3.9 7.8-14.3 28.6-70 70.7-18.2 13.7-38.4 20.7-60.1 20.7-31.4 0-55.4-14.7-59.6-17.5l-158.8-80.8c-7.7 10.4-24.5 28.7-59 50.3-41.3 25.9-124.6 43.9-128.2 44.7l-7.9 1.7-26.2-55 14.9-1.1c0.2 0 26-2.1 63.7-14.5 52.3-17.2 83.7-37.2 101.8-64.7 15.8-24.1 19.1-76.2 19-94.2v-10.3h53.4l-0.4 10.6c0 1.3-1.1 30.9-3 50.7-1.3 13-4.7 26.6-7.1 35.2 18.7 8.6 66.7 30.7 111.1 51.9 12.8 6.1 23.1 11.3 32.2 15.8 27.8 13.9 38.2 19.1 52.2 19.1 1.2 0 2.5 0 3.9-0.1 21.3-1.3 56-33.9 74.6-56V269.5c0-1.5 0-3.2-0.1-4-1.4-1.4-6.3-4.5-11.8-8l-2.5-1.6c-27-17.1-127.7-73.8-287.3-86.7-19.7-1.6-39.5-2.4-58.7-2.4-137.5 0-228.3 41.1-270.1 65.6-40.7 23.8-54.2 41.2-57.5 46.3v361.1c4 5.5 13.3 18.2 17.7 23.4 4.8 5.6 59.5 59.5 143.8 117.8 91.6 63.3 144.5 88 188.4 88 15.1 0 30.3-2.7 49.3-8.7 61.2-19.3 139.6-90.4 140.4-91.1l7.9-7.2 35.8 42.8-6.1 6.6c-0.7 0.7-7.3 7.7-31.9 27.3l-1.8 1.4c-25.9 20.7-86.7 69.1-162.6 82.8-10.6 2-21.4 3-32.1 3zM254.1 713l4.6-7.6c0.2-0.3 20.7-34.4 34.8-84.3 14.2-50.1 14.6-157.4 14.6-158.4l0.1-219.4h13.6c16.8 0 106.1-0.3 218.8-5.2 82.5-3.6 198-13.9 199.2-14l7.9-0.7 19.5 54.4-13.5 0.9c-1.1 0.1-99 6.2-161.8 9.6v53.4h169.4V394H591.9v48h136.7v195.6h-55.1V492.3H457.2v145.3h-55.1V442h134.7v-48H373.5v-52.4h163.3v-50.9c-57 2-144.1 4.2-173.4 4.9v121.7c0 97.1-2.6 160.3-16 216.5-13.5 56.1-41.3 103.6-42.5 105.6l-6.1 10.3-44.7-36.7z" p-id="8954"></path></svg>