<?xml version="1.0" standalone="no"?><!DOCTYPE svg PUBLIC "-//W3C//DTD SVG 1.1//EN" "http://www.w3.org/Graphics/SVG/1.1/DTD/svg11.dtd"><svg t="1539773602842" class="icon" style="" viewBox="0 0 1024 1024" version="1.1" xmlns="http://www.w3.org/2000/svg" p-id="1632" xmlns:xlink="http://www.w3.org/1999/xlink" width="200" height="200"><defs><style type="text/css"></style></defs><path d="M763.664 889.675 259.969 889.675c-19.816 0-35.977 35.979-35.977 35.979l0 35.978 575.652 0 0-35.978C799.643 905.838 783.481 889.675 763.664 889.675z" p-id="1633"></path><path d="M871.599 62.176 152.034 62.176c-59.588 0-107.935 48.363-107.935 107.935l0 503.695c0 59.588 48.347 107.935 107.935 107.935l251.848 0 0 35.978c0 19.834 16.162 35.978 35.978 35.978l143.913 0c19.817 0 35.979-18.551 35.979-35.978l0-35.978 251.847 0c59.589 0 107.935-48.347 107.935-107.935L979.534 170.111C979.534 110.539 931.188 62.176 871.599 62.176zM152.034 637.828c-19.816 0-35.978-16.144-35.978-35.978L116.056 170.111c0-19.817 16.163-35.979 35.978-35.979l719.565 0c19.817 0 35.979 16.162 35.979 35.979l0 431.737c0 19.835-16.162 35.979-35.979 35.979L152.034 637.828 152.034 637.828zM871.565 747.097c-20.556 0-37.243-16.689-37.243-37.314 0-20.571 16.688-37.313 37.243-37.313 20.623 0 37.313 16.741 37.313 37.313C908.877 730.409 892.188 747.097 871.565 747.097z" p-id="1634"></path><path d="M774.205 225.114 655.729 343.59l-82.496-82.497c-7.905-7.941-19.078-11.664-30.217-10.225-11.103 1.494-20.905 8.082-26.457 17.813l-106.95 187.147-44.27-110.71c-4.497-11.226-14.336-19.447-26.177-21.872-12.052-2.443-24.138 1.246-32.675 9.803L198.553 440.983c-14.055 14.054-14.055 36.823 0 50.876 14.054 14.055 36.821 14.055 50.875 0l69.356-69.357 51.685 129.245c5.13 12.806 17.146 21.573 30.918 22.521 0.843 0.053 1.687 0.088 2.496 0.088 12.858 0 24.805-6.868 31.236-18.129l120.547-210.95 74.627 74.625c14.055 14.054 36.821 14.054 50.876 0l143.913-143.913c14.054-14.054 14.054-36.822 0-50.876C811.027 211.059 788.259 211.059 774.205 225.114z" p-id="1635"></path></svg>