<?xml version="1.0" standalone="no"?><!DOCTYPE svg PUBLIC "-//W3C//DTD SVG 1.1//EN" "http://www.w3.org/Graphics/SVG/1.1/DTD/svg11.dtd"><svg t="1539773692134" class="icon" style="" viewBox="0 0 1024 1024" version="1.1" xmlns="http://www.w3.org/2000/svg" p-id="1876" xmlns:xlink="http://www.w3.org/1999/xlink" width="200" height="200"><defs><style type="text/css"></style></defs><path d="M896 1024H128a128 128 0 0 1-128-128V320a128 128 0 0 1 128-128h64v128s-64-6.656-64 64v448c0 70.656 64 64 64 64h640c70.656 0 64-64 64-64V384c0-70.656-64-64-64-64V192h64a128 128 0 0 1 128 128v576a128 128 0 0 1-128 128z m-64-192h-128V576h128v256z m-384 0V384h128v448H448z m-256 0V448h128v384H192z m512-512H320c-53.056 0-64-10.944-64-64V192c0-53.056 10.944-64 64-64h64V64a64 64 0 0 1 64-64h128a64 64 0 0 1 64 64v64h64c52.992 0 64 10.944 64 64v64c0 53.056-11.008 64-64 64z m0-128H320v64h384V192z" p-id="1877"></path></svg>