<?xml version="1.0" standalone="no"?><!DOCTYPE svg PUBLIC "-//W3C//DTD SVG 1.1//EN" "http://www.w3.org/Graphics/SVG/1.1/DTD/svg11.dtd"><svg t="1539773864186" class="icon" style="" viewBox="0 0 1024 1024" version="1.1" xmlns="http://www.w3.org/2000/svg" p-id="3283" xmlns:xlink="http://www.w3.org/1999/xlink" width="200" height="200"><defs><style type="text/css"></style></defs><path d="M511.69848889 1015.41319111C234.56768 1015.41319111 9.10222222 789.95911111 9.10222222 512.83626667c0-134.17244445 52.224-260.34062222 147.05777778-355.26656 5.09496889-5.10862222 11.8784-7.92007111 19.10215111-7.92007112 7.21123555 0 13.99125333 2.80234667 19.08622222 7.90300445 10.53013333 10.51989333 10.54037333 27.64686222 0.02389334 38.17699555-84.64952889 84.73031111-131.26542222 197.34641778-131.26542222 317.10663112 0 247.34492445 201.23648 448.57571555 448.59164444 448.57571555 247.34378667 0 448.58026667-201.23079111 448.58026666-448.57571555 0-238.45091555-184.58055111-433.71064889-421.58193777-447.78723556v150.53937778c0 14.89123555-12.11050667 27.00629333-26.99832889 27.00629333-14.89351111 0-27.00856889-12.11505778-27.00856889-27.00629333V10.24h27.00856889c134.03249778 0 260.18588445 52.33891555 355.22218666 147.36952889 95.02947555 95.03516445 147.36952889 221.18855111 147.36497778 355.22673778-0.00113778 277.12284445-225.46204445 502.57692445-502.58716444 502.57692444z m-0.00568889-435.93159111c-17.79598222 0-34.52814222-6.93248-47.10968889-19.51630222-23.42001778-23.42456889-199.77898667-280.58624-207.27580444-291.52597333l9.99310222-9.99082667c10.93518222 7.49681778 268.08661333 183.84896 291.50776889 207.27808 12.58723555 12.58609778 19.52426667 29.31939555 19.52426667 47.12561777 0 17.80508445-6.93248 34.53610667-19.52426667 47.11765334-12.58268445 12.58268445-29.31484445 19.51175111-47.11082667 19.51175111h-0.00455111z m0 0" p-id="3284"></path></svg>