<?xml version="1.0" standalone="no"?><!DOCTYPE svg PUBLIC "-//W3C//DTD SVG 1.1//EN" "http://www.w3.org/Graphics/SVG/1.1/DTD/svg11.dtd"><svg t="1539745260382" class="icon" style="" viewBox="0 0 1024 1024" version="1.1" xmlns="http://www.w3.org/2000/svg" p-id="7486" xmlns:xlink="http://www.w3.org/1999/xlink" width="200" height="200"><defs><style type="text/css"></style></defs><path d="M701.092148 382.202818c-3.529383-22.200628-14.219863-31.967062-36.419468-33.81413-10.588149-0.881067-21.38096-0.840134-31.968086 0.041956-71.381747 6.051833-121.958656-84.164888-80.675414-142.005224 6.565533-9.191336 11.961426-19.388583 16.782222-29.648251 4.001127-8.535397 7.550976-17.891486 2.360767-27.350928-15.183817-27.739784-40.912805-40.892339-69.782319-46.226834-25.236777-4.678556-33.157167 17.767666-43.313482 35.065633-5.109368 8.719592-9.992585 17.644869-15.902178 25.790386-10.709923 14.731516-24.703635 24.724101-42.513256 29.54592-49.570999 13.398148-87.303368-3.898797-113.874537-52.7719-24.150026-44.379767-40.727587-48.792263-83.631746-22.158673-4.800329 2.995217-9.56075 6.114255-14.013155 9.601682-20.497846 16.024975-23.862477 31.680537-11.654434 54.68139 7.120165 13.377682 15.819291 26.037003 21.831214 39.865963 22.610974 51.993165-15.245216 118.122281-71.013357 124.031875-16.127306 1.723248-32.541137 0.676405-48.812729 1.415232-15.449877 0.697895-28.786627 6.134721-33.854039 22.302959-7.40669 23.514553-7.40669 47.561225-0.205684 71.115687 4.042059 13.152555 13.685697 21.174252 27.761274 22.016433 8.741082 0.533143 17.522072 0.122797 26.283619 0.122797 30.489408-0.697895 58.640562 3.939729 80.286558 28.991288 31.967062 36.993542 34.921347 73.393567 8.699126 118.655423-27.965935 48.320519-23.02132 64.652486 27.371394 89.705068 5.601578 2.790556 11.44875 5.087878 17.317411 7.241938 16.435321 6.052856 29.894867 1.026376 39.558971-12.926404 7.509021-10.874675 14.21884-22.425755 20.106944-34.285874 30.202882-60.85602 128.195707-60.896952 158.563342-0.389879 5.949502 11.838629 12.412704 23.596418 20.168341 34.265408 12.987802 17.871019 27.001981 21.0095 49.79715 9.376554 23.472598-11.982916 51.993165-20.764929 52.505841-54.947449 0.144286-9.315156-5.847172-17.871019-10.607592-26.118868-6.03239-10.360975-12.597923-20.537755-17.48114-31.474852-22.917966-51.232848 11.777231-115.967198 66.641793-125.651768 17.522072-3.097548 35.045167-0.61603 52.546773-1.86651 22.447245-1.559519 33.177634-10.56666 37.055964-32.910551 2.812045-16.293081 2.709715-32.973996 0.083912-49.285497zM372.619044 539.862581c-73.947176 0.327458-133.284609-58.783825-133.469827-132.935661-0.184195-74.41892 58.70196-133.715421 132.627646-133.551692 73.043596 0.163729 131.23288 58.906621 131.418099 132.710534 0.185218 73.700559-58.147328 133.448338-130.575918 133.776819z" fill="#E68C49" p-id="7487"></path><path d="M984.711693 646.187165c-1.026376-10.833743-4.227278-21.092387-8.987698-30.817889-6.667863-13.665231-16.782222-19.614733-32.212656-15.327081-13.235442 3.672646-25.996071 9.704013-39.313377 9.048074-42.10291 0.903579-71.25895-41.815361-59.46023-85.806272 8.843412-32.992415 3.282766-43.559075-27.124778-51.622727-30.776957-8.207939-42.143842-1.108241-49.078788 30.571272a228.856291 228.856291 0 0 1-1.702782 7.42818c-12.537548 50.146097-68.345598 66.88841-106.222253 31.843242-6.011924-5.539156-11.818163-11.32493-17.911952-16.803711-8.555863-7.714705-17.911952-7.858992-27.88407-2.873444-35.661198 17.872043-40.830941 47.171346-12.556991 74.213236 16.35141 15.655562 26.507724 32.951483 23.040763 57.060577-4.697999 32.644491-23.738657 49.674353-54.33142 57.470922-30.921243 7.858992-36.357046 19.102057-27.329438 49.776684 8.985652 30.490431 19.881816 36.870746 49.940412 26.838252 25.689079-8.576329 48.462758-8.227382 69.699432 11.860118 22.425755 21.194718 23.985274 45.651736 16.394389 73.187883-2.933819 10.730389-8.67866 23.062252 1.025352 32.459273 14.774495 14.260795 33.710776 18.97926 53.737902 16.496719 17.84953-2.236947 18.753109-17.994839 22.11774-31.371498 1.066285-4.309142 2.010797-8.659217 3.303233-12.885472 13.890358-45.652759 67.196425-61.041238 102.775758-29.627784 6.606465 5.826705 12.516058 12.494569 19.183921 18.219967 8.350179 7.202029 17.666358 8.740058 27.945469 3.774976 36.461423-17.60496 41.590234-47.663556 12.701277-75.30101-0.903579-0.862647-1.847068-1.702782-2.750648-2.584871-36.727483-36.358069-22.692838-93.685729 26.530237-108.396779 6.011924-1.806135 11.982916-3.755534 18.035772-5.334495 16.290011-4.269233 21.912056-15.615653 20.435424-31.496342zM762.871189 787.268344c-49.223075 0.923022-91.038436-41.11849-91.140766-91.612511-0.122797-50.576909 40.011272-91.304496 90.833774-92.186585 48.975435-0.862647 90.833775 41.282219 91.243098 91.818195 0.408299 50.206472-39.949874 91.016947-90.936106 91.980901z" fill="#4382BC" p-id="7488"></path></svg>