<?xml version="1.0" standalone="no"?><!DOCTYPE svg PUBLIC "-//W3C//DTD SVG 1.1//EN" "http://www.w3.org/Graphics/SVG/1.1/DTD/svg11.dtd"><svg t="1539745269894" class="icon" style="" viewBox="0 0 1027 1024" version="1.1" xmlns="http://www.w3.org/2000/svg" p-id="7596" xmlns:xlink="http://www.w3.org/1999/xlink" width="200.5859375" height="200"><defs><style type="text/css"></style></defs><path d="M25.680251 995.109718V500.76489h176.551724v-256.802508l-12.840125-3.210031C147.661442 231.122257 118.77116 202.231975 109.141066 160.501567c-6.420063-25.680251-3.210031-54.570533 12.840125-80.250783C134.821317 54.570533 160.501567 38.520376 189.39185 32.100313c9.630094-3.210031 16.050157-3.210031 25.68025-3.210031C266.432602 28.890282 308.163009 64.200627 321.003135 112.351097c3.210031 25.680251 0 54.570533-16.050157 80.250784-12.840125 25.680251-38.520376 41.730408-64.200627 48.15047l-12.840125 3.210031v256.802508h263.22257v-256.802508l-9.630094-3.210031c-38.520376-9.630094-70.62069-38.520376-80.250784-80.250784-16.050157-57.780564 19.260188-115.561129 80.250784-128.401254 9.630094-3.210031 16.050157-3.210031 25.680251-3.210031 51.360502 0 93.090909 35.310345 105.931034 83.460815 12.840125 57.780564-22.470219 115.561129-80.250783 131.611285l-12.840126 3.210032v256.802508h263.222571v-256.802508l-12.840125-6.420063c-38.520376-9.630094-70.62069-38.520376-80.250784-80.250784-12.840125-57.780564 22.470219-115.561129 80.250784-128.401254 9.630094-3.210031 16.050157-3.210031 25.68025-3.210031 51.360502 0 93.090909 35.310345 105.931035 83.460815 6.420063 28.890282 3.210031 57.780564-12.840126 80.250784-16.050157 25.680251-38.520376 41.730408-67.410658 48.15047l-12.840125 3.210031v256.802508h176.551724V995.109718H25.680251z m25.680251-25.680251h905.22884V529.655172H51.360502v439.774295zM796.087774 54.570533c-44.940439 0-80.250784 35.310345-80.250783 80.250784 0 48.15047 35.310345 83.460815 80.250783 83.460815s80.250784-35.310345 80.250784-80.250784c3.210031-44.940439-32.100313-80.250784-80.250784-83.460815z m-292.112852 0c-44.940439 0-80.250784 35.310345-80.250784 80.250784 0 48.15047 35.310345 83.460815 80.250784 83.460815s80.250784-35.310345 80.250783-80.250784c3.210031-44.940439-32.100313-80.250784-80.250783-83.460815z m-288.902822 0c-44.940439 0-80.250784 35.310345-80.250783 80.250784 0 48.15047 35.310345 83.460815 80.250783 83.460815s80.250784-35.310345 80.250784-80.250784-35.310345-80.250784-80.250784-83.460815z" fill="#2c2c2c" p-id="7597"></path><path d="M558.545455 719.047022c-6.420063 0-12.840125-6.420063-12.840126-12.840125s6.420063-12.840125 12.840126-12.840126h234.332288c6.420063 0 12.840125 6.420063 12.840125 12.840126s-6.420063 12.840125-12.840125 12.840125h-234.332288z m-176.551725 0c-6.420063 0-12.840125-6.420063-12.840125-12.840125s6.420063-12.840125 12.840125-12.840126h57.780565c6.420063 0 12.840125 6.420063 12.840125 12.840126s-6.420063 12.840125-12.840125 12.840125h-57.780565zM558.545455 831.398119c-6.420063 0-12.840125-6.420063-12.840126-12.840125s6.420063-12.840125 12.840126-12.840126h234.332288c6.420063 0 12.840125 6.420063 12.840125 12.840126s-6.420063 12.840125-12.840125 12.840125h-234.332288z m-176.551725 0c-6.420063 0-12.840125-6.420063-12.840125-12.840125s6.420063-12.840125 12.840125-12.840126h57.780565c6.420063 0 12.840125 6.420063 12.840125 12.840126s-6.420063 12.840125-12.840125 12.840125h-57.780565z" fill="#2c2c2c" p-id="7598"></path></svg>