<?xml version="1.0" standalone="no"?><!DOCTYPE svg PUBLIC "-//W3C//DTD SVG 1.1//EN" "http://www.w3.org/Graphics/SVG/1.1/DTD/svg11.dtd"><svg t="1539745128021" class="icon" style="" viewBox="0 0 1024 1024" version="1.1" xmlns="http://www.w3.org/2000/svg" p-id="2006" xmlns:xlink="http://www.w3.org/1999/xlink" width="200" height="200"><defs><style type="text/css"></style></defs><path d="M512 1020C232 1020 4 792 4 512S232 4 512 4 1020 232 1020 512 792 1020 512 1020z m0-984C249.6 36 36 249.6 36 512s213.6 476 476 476 476-213.6 476-476S774.4 36 512 36z" p-id="2007"></path><path d="M512 912.8c-220.8 0-400.8-180-400.8-400.8S291.2 111.2 512 111.2s400.8 180 400.8 400.8-180 400.8-400.8 400.8z m0-785.6c-212 0-384.8 172.8-384.8 384.8s172.8 384.8 384.8 384.8 384.8-172.8 384.8-384.8S724 127.2 512 127.2z" p-id="2008"></path><path d="M512 568.8c-31.2 0-56.8-25.6-56.8-56.8s25.6-56.8 56.8-56.8 56.8 25.6 56.8 56.8-25.6 56.8-56.8 56.8z m0-97.6c-22.4 0-40.8 18.4-40.8 40.8s18.4 40.8 40.8 40.8 40.8-18.4 40.8-40.8-18.4-40.8-40.8-40.8zM512 841.6c-4.8 0-8-3.2-8-8v-34.4c0-4.8 3.2-8 8-8s8 3.2 8 8v34.4c0 4-3.2 8-8 8zM512 232.8c-4.8 0-8-3.2-8-8v-34.4c0-4.8 3.2-8 8-8s8 3.2 8 8v34.4c0 4-3.2 8-8 8zM833.6 520h-34.4c-4.8 0-8-3.2-8-8s3.2-8 8-8h34.4c4.8 0 8 3.2 8 8s-4 8-8 8zM224.8 520h-34.4c-4.8 0-8-3.2-8-8s3.2-8 8-8h34.4c4.8 0 8 3.2 8 8s-4 8-8 8zM739.2 747.2c-2.4 0-4-0.8-5.6-2.4l-24-24c-3.2-3.2-3.2-8 0-11.2s8-3.2 11.2 0l24 24c3.2 3.2 3.2 8 0 11.2-1.6 1.6-3.2 2.4-5.6 2.4zM308.8 316.8c-2.4 0-4-0.8-5.6-2.4l-24-24c-3.2-3.2-3.2-8 0-11.2s8-3.2 11.2 0l24 24c3.2 3.2 3.2 8 0 11.2-1.6 1.6-3.2 2.4-5.6 2.4zM715.2 316.8c-2.4 0-4-0.8-5.6-2.4-3.2-3.2-3.2-8 0-11.2l24-24c3.2-3.2 8-3.2 11.2 0s3.2 8 0 11.2l-24 24c-1.6 1.6-4 2.4-5.6 2.4zM284.8 747.2c-2.4 0-4-0.8-5.6-2.4-3.2-3.2-3.2-8 0-11.2l24-24c3.2-3.2 8-3.2 11.2 0s3.2 8 0 11.2l-24 24c-1.6 1.6-4 2.4-5.6 2.4z" p-id="2009"></path><path d="M512 471.2c-4.8 0-8-3.2-8-8V296.8c0-4.8 3.2-8 8-8s8 3.2 8 8v166.4c0 4-3.2 8-8 8zM463.2 520H348c-4.8 0-8-3.2-8-8s3.2-8 8-8h115.2c4.8 0 8 3.2 8 8s-4 8-8 8z" p-id="2010"></path></svg>